<svg xmlns="http://www.w3.org/2000/svg" version="1.1" xmlns:xlink="http://www.w3.org/1999/xlink" xmlns:svgjs="http://svgjs.dev/svgjs" width="1440" height="560" preserveAspectRatio="none" viewBox="0 0 1440 560"><g mask="url(&quot;#SvgjsMask1698&quot;)" fill="none"><rect width="1440" height="560" x="0" y="0" fill="url(&quot;#SvgjsLinearGradient1699&quot;)"></rect><path d="M1440 0L873.8 0L1440 182.78z" fill="rgba(255, 255, 255, .1)"></path><path d="M873.8 0L1440 182.78L1440 347.69L628.01 0z" fill="rgba(255, 255, 255, .075)"></path><path d="M628.01 0L1440 347.69L1440 421.19L437.5 0z" fill="rgba(255, 255, 255, .05)"></path><path d="M437.5 0L1440 421.19L1440 451.63L337.48 0z" fill="rgba(255, 255, 255, .025)"></path><path d="M0 560L616.65 560L0 305.07z" fill="rgba(0, 0, 0, .1)"></path><path d="M0 305.07L616.65 560L734.55 560L0 191.18z" fill="rgba(0, 0, 0, .075)"></path><path d="M0 191.18L734.55 560L966.49 560L0 148.68z" fill="rgba(0, 0, 0, .05)"></path><path d="M0 148.68L966.49 560L1135.57 560L0 140.14000000000001z" fill="rgba(0, 0, 0, .025)"></path></g><defs><mask id="SvgjsMask1698"><rect width="1440" height="560" fill="#ffffff"></rect></mask><linearGradient x1="84.72%" y1="-39.29%" x2="15.28%" y2="139.29%" gradientUnits="userSpaceOnUse" id="SvgjsLinearGradient1699"><stop stop-color="rgba(14, 42, 71, 1)" offset="0"></stop><stop stop-color="rgba(76, 147, 165, 1)" offset="1"></stop></linearGradient></defs></svg>